<mxfile host="Electron" modified="2024-05-16T18:31:07.215Z" agent="Mozilla/5.0 (Windows NT 10.0; Win64; x64) AppleWebKit/537.36 (KHTML, like Gecko) draw.io/24.4.0 Chrome/120.0.6099.109 Electron/28.1.0 Safari/537.36" etag="hXxHCMZAtF0fc_RAV9Q7" version="24.4.0" type="device">
  <diagram name="Page-1" id="5987fedf-629e-85c4-6858-42fee31821dd">
    <mxGraphModel dx="4983.5" dy="2233" grid="1" gridSize="10" guides="1" tooltips="1" connect="1" arrows="1" fold="1" page="1" pageScale="1.5" pageWidth="1169" pageHeight="826" background="none" math="0" shadow="0">
      <root>
        <mxCell id="0" style=";html=1;" />
        <mxCell id="1" style=";html=1;" parent="0" />
        <mxCell id="R7-nLTBjnwxttfNBIYHq-21" value="&lt;font size=&quot;1&quot; style=&quot;&quot;&gt;&lt;b style=&quot;font-size: 32px;&quot;&gt;...&lt;/b&gt;&lt;/font&gt;" style="ellipse;whiteSpace=wrap;html=1;strokeColor=#FFFFFF;fontColor=#FFFFFF;fillColor=#182E3E;" vertex="1" parent="1">
          <mxGeometry x="-30" y="570" width="120" height="80" as="geometry" />
        </mxCell>
        <mxCell id="R7-nLTBjnwxttfNBIYHq-13" style="edgeStyle=orthogonalEdgeStyle;rounded=0;orthogonalLoop=1;jettySize=auto;html=1;exitX=1;exitY=0.5;exitDx=0;exitDy=0;entryX=0;entryY=0.5;entryDx=0;entryDy=0;fontFamily=Helvetica;fontSize=17;fontColor=default;labelBackgroundColor=none;strokeColor=#23445D;" edge="1" parent="1">
          <mxGeometry relative="1" as="geometry">
            <mxPoint x="720" y="255" as="sourcePoint" />
            <mxPoint x="720" y="255" as="targetPoint" />
          </mxGeometry>
        </mxCell>
        <mxCell id="R7-nLTBjnwxttfNBIYHq-20" value="&lt;font size=&quot;1&quot; style=&quot;&quot;&gt;&lt;b style=&quot;font-size: 20px;&quot;&gt;Species 3&lt;/b&gt;&lt;/font&gt;" style="ellipse;whiteSpace=wrap;html=1;strokeColor=#FFFFFF;fontColor=#FFFFFF;fillColor=#182E3E;" vertex="1" parent="1">
          <mxGeometry x="-30" y="510" width="120" height="80" as="geometry" />
        </mxCell>
        <mxCell id="R7-nLTBjnwxttfNBIYHq-19" value="&lt;font size=&quot;1&quot; style=&quot;&quot;&gt;&lt;b style=&quot;font-size: 20px;&quot;&gt;Species 2&lt;/b&gt;&lt;/font&gt;" style="ellipse;whiteSpace=wrap;html=1;strokeColor=#FFFFFF;fontColor=#FFFFFF;fillColor=#182E3E;" vertex="1" parent="1">
          <mxGeometry x="-30" y="450" width="120" height="80" as="geometry" />
        </mxCell>
        <mxCell id="R7-nLTBjnwxttfNBIYHq-88" style="edgeStyle=orthogonalEdgeStyle;curved=1;rounded=0;orthogonalLoop=1;jettySize=auto;html=1;exitX=1;exitY=0.5;exitDx=0;exitDy=0;entryX=0;entryY=0.5;entryDx=0;entryDy=0;strokeColor=#23445D;align=center;verticalAlign=middle;fontFamily=Helvetica;fontSize=11;fontColor=default;labelBackgroundColor=default;endArrow=classic;" edge="1" parent="1" source="R7-nLTBjnwxttfNBIYHq-18" target="R7-nLTBjnwxttfNBIYHq-81">
          <mxGeometry relative="1" as="geometry" />
        </mxCell>
        <mxCell id="R7-nLTBjnwxttfNBIYHq-18" value="&lt;font size=&quot;1&quot; style=&quot;&quot;&gt;&lt;b style=&quot;font-size: 20px;&quot;&gt;Species 1&lt;/b&gt;&lt;/font&gt;" style="ellipse;whiteSpace=wrap;html=1;strokeColor=#FFFFFF;fontColor=#FFFFFF;fillColor=#182E3E;" vertex="1" parent="1">
          <mxGeometry x="-30" y="385" width="120" height="85" as="geometry" />
        </mxCell>
        <mxCell id="R7-nLTBjnwxttfNBIYHq-50" style="edgeStyle=orthogonalEdgeStyle;rounded=0;orthogonalLoop=1;jettySize=auto;html=1;exitX=1;exitY=0.5;exitDx=0;exitDy=0;entryX=0;entryY=0.5;entryDx=0;entryDy=0;strokeColor=#23445D;" edge="1" parent="1" source="R7-nLTBjnwxttfNBIYHq-29" target="R7-nLTBjnwxttfNBIYHq-43">
          <mxGeometry relative="1" as="geometry" />
        </mxCell>
        <mxCell id="R7-nLTBjnwxttfNBIYHq-29" value="&lt;div style=&quot;&quot;&gt;&lt;b style=&quot;&quot;&gt;&lt;font style=&quot;font-size: 34px;&quot;&gt;Project&lt;br&gt;&lt;/font&gt;&lt;/b&gt;&lt;h2 class=&quot;padt-2&quot;&gt;NAD83 / Alberta 10-TM&lt;/h2&gt;&lt;/div&gt;&lt;div style=&quot;&quot;&gt;&lt;br&gt;&lt;/div&gt;" style="rhombus;whiteSpace=wrap;html=1;labelBackgroundColor=none;fillColor=#CC99FF;strokeColor=#000000;fontColor=#FFFFFF;" vertex="1" parent="1">
          <mxGeometry x="-1200" y="110" width="300" height="270" as="geometry" />
        </mxCell>
        <mxCell id="R7-nLTBjnwxttfNBIYHq-49" style="edgeStyle=orthogonalEdgeStyle;rounded=0;orthogonalLoop=1;jettySize=auto;html=1;exitX=1;exitY=0.5;exitDx=0;exitDy=0;entryX=0;entryY=0.5;entryDx=0;entryDy=0;strokeColor=#23445D;" edge="1" parent="1" source="R7-nLTBjnwxttfNBIYHq-31" target="R7-nLTBjnwxttfNBIYHq-44">
          <mxGeometry relative="1" as="geometry" />
        </mxCell>
        <mxCell id="R7-nLTBjnwxttfNBIYHq-31" value="&lt;div style=&quot;&quot;&gt;&lt;b style=&quot;&quot;&gt;&lt;font style=&quot;font-size: 34px;&quot;&gt;Project&lt;br&gt;&lt;/font&gt;&lt;/b&gt;&lt;div&gt;&lt;h2 class=&quot;padt-2&quot;&gt;NAD83 / Alberta 10-TM&lt;/h2&gt;&lt;/div&gt;&lt;div&gt;&lt;br&gt;&lt;/div&gt;&lt;/div&gt;&lt;div style=&quot;&quot;&gt;&lt;br&gt;&lt;/div&gt;" style="rhombus;whiteSpace=wrap;html=1;labelBackgroundColor=none;fillColor=#CC99FF;strokeColor=#000000;fontColor=#FFFFFF;" vertex="1" parent="1">
          <mxGeometry x="-1200" y="380" width="300" height="270" as="geometry" />
        </mxCell>
        <mxCell id="R7-nLTBjnwxttfNBIYHq-46" style="edgeStyle=orthogonalEdgeStyle;rounded=0;orthogonalLoop=1;jettySize=auto;html=1;exitX=1;exitY=0.5;exitDx=0;exitDy=0;strokeColor=#23445D;curved=1;" edge="1" parent="1" source="R7-nLTBjnwxttfNBIYHq-34" target="R7-nLTBjnwxttfNBIYHq-44">
          <mxGeometry relative="1" as="geometry" />
        </mxCell>
        <mxCell id="R7-nLTBjnwxttfNBIYHq-47" style="edgeStyle=orthogonalEdgeStyle;rounded=0;orthogonalLoop=1;jettySize=auto;html=1;exitX=1;exitY=0.5;exitDx=0;exitDy=0;entryX=0.5;entryY=1;entryDx=0;entryDy=0;strokeColor=#23445D;curved=1;" edge="1" parent="1" source="R7-nLTBjnwxttfNBIYHq-34" target="R7-nLTBjnwxttfNBIYHq-43">
          <mxGeometry relative="1" as="geometry" />
        </mxCell>
        <mxCell id="R7-nLTBjnwxttfNBIYHq-34" value="&lt;div style=&quot;&quot;&gt;&lt;b style=&quot;&quot;&gt;&lt;font style=&quot;font-size: 34px;&quot;&gt;Project&lt;br&gt;&lt;/font&gt;&lt;/b&gt;&lt;div&gt;&lt;h2 class=&quot;padt-2&quot;&gt;NAD83 / Alberta 10-TM&lt;/h2&gt;&lt;/div&gt;&lt;div&gt;&lt;br&gt;&lt;/div&gt;&lt;/div&gt;&lt;div style=&quot;&quot;&gt;&lt;br&gt;&lt;/div&gt;" style="rhombus;whiteSpace=wrap;html=1;labelBackgroundColor=none;fillColor=#CC99FF;strokeColor=#000000;fontColor=#FFFFFF;" vertex="1" parent="1">
          <mxGeometry x="-1200" y="650" width="300" height="270" as="geometry" />
        </mxCell>
        <mxCell id="R7-nLTBjnwxttfNBIYHq-40" style="edgeStyle=orthogonalEdgeStyle;rounded=0;orthogonalLoop=1;jettySize=auto;html=1;exitX=1;exitY=0.5;exitDx=0;exitDy=0;entryX=0;entryY=0.5;entryDx=0;entryDy=0;strokeColor=#23445D;" edge="1" parent="1" source="R7-nLTBjnwxttfNBIYHq-38" target="R7-nLTBjnwxttfNBIYHq-29">
          <mxGeometry relative="1" as="geometry" />
        </mxCell>
        <mxCell id="R7-nLTBjnwxttfNBIYHq-38" value="&lt;b&gt;&lt;font style=&quot;font-size: 30px;&quot;&gt;Canada Protected Areas Boundary Layer&lt;/font&gt;&lt;/b&gt;" style="ellipse;whiteSpace=wrap;html=1;fillColor=#4D94C7;strokeColor=#000000;labelBackgroundColor=none;fontColor=#FFFFFF;" vertex="1" parent="1">
          <mxGeometry x="-1530" y="120" width="270" height="250" as="geometry" />
        </mxCell>
        <mxCell id="R7-nLTBjnwxttfNBIYHq-57" value="" style="edgeStyle=orthogonalEdgeStyle;rounded=0;orthogonalLoop=1;jettySize=auto;html=1;strokeColor=#23445D;" edge="1" parent="1" source="R7-nLTBjnwxttfNBIYHq-43" target="R7-nLTBjnwxttfNBIYHq-51">
          <mxGeometry relative="1" as="geometry" />
        </mxCell>
        <mxCell id="R7-nLTBjnwxttfNBIYHq-43" value="&lt;b&gt;&lt;font style=&quot;font-size: 27px;&quot;&gt;CLIP&lt;/font&gt;&lt;/b&gt;" style="rounded=1;whiteSpace=wrap;html=1;strokeColor=#FFFFFF;fontColor=#FFFFFF;fillColor=#182E3E;" vertex="1" parent="1">
          <mxGeometry x="-840" y="215" width="120" height="60" as="geometry" />
        </mxCell>
        <mxCell id="R7-nLTBjnwxttfNBIYHq-61" value="" style="edgeStyle=orthogonalEdgeStyle;rounded=0;orthogonalLoop=1;jettySize=auto;html=1;strokeColor=#23445D;" edge="1" parent="1" source="R7-nLTBjnwxttfNBIYHq-44" target="R7-nLTBjnwxttfNBIYHq-60">
          <mxGeometry relative="1" as="geometry" />
        </mxCell>
        <mxCell id="R7-nLTBjnwxttfNBIYHq-44" value="&lt;b&gt;&lt;font style=&quot;font-size: 27px;&quot;&gt;CLIP&lt;/font&gt;&lt;/b&gt;" style="rounded=1;whiteSpace=wrap;html=1;strokeColor=#FFFFFF;fontColor=#FFFFFF;fillColor=#182E3E;" vertex="1" parent="1">
          <mxGeometry x="-876.5" y="485" width="120" height="60" as="geometry" />
        </mxCell>
        <mxCell id="R7-nLTBjnwxttfNBIYHq-51" value="&lt;b style=&quot;font-size: 28px;&quot;&gt;AB&lt;br&gt;Protected&lt;br&gt;Areas&lt;/b&gt;" style="ellipse;whiteSpace=wrap;html=1;fillColor=#FFD966;strokeColor=#333333;labelBackgroundColor=none;" vertex="1" parent="1">
          <mxGeometry x="-350" y="135" width="230" height="220" as="geometry" />
        </mxCell>
        <mxCell id="R7-nLTBjnwxttfNBIYHq-54" style="edgeStyle=orthogonalEdgeStyle;rounded=0;orthogonalLoop=1;jettySize=auto;html=1;exitX=1;exitY=0.5;exitDx=0;exitDy=0;entryX=0;entryY=0.5;entryDx=0;entryDy=0;strokeColor=#23445D;" edge="1" parent="1" source="R7-nLTBjnwxttfNBIYHq-52" target="R7-nLTBjnwxttfNBIYHq-31">
          <mxGeometry relative="1" as="geometry" />
        </mxCell>
        <mxCell id="R7-nLTBjnwxttfNBIYHq-52" value="&lt;b&gt;&lt;font style=&quot;font-size: 30px;&quot;&gt;Canada Threatened Species Range Boundaries&lt;/font&gt;&lt;/b&gt;" style="ellipse;whiteSpace=wrap;html=1;fillColor=#4D94C7;strokeColor=#000000;labelBackgroundColor=none;fontColor=#FFFFFF;" vertex="1" parent="1">
          <mxGeometry x="-1530" y="390" width="270" height="250" as="geometry" />
        </mxCell>
        <mxCell id="R7-nLTBjnwxttfNBIYHq-56" style="edgeStyle=orthogonalEdgeStyle;rounded=0;orthogonalLoop=1;jettySize=auto;html=1;exitX=1;exitY=0.5;exitDx=0;exitDy=0;entryX=0;entryY=0.5;entryDx=0;entryDy=0;strokeColor=#23445D;" edge="1" parent="1" source="R7-nLTBjnwxttfNBIYHq-53" target="R7-nLTBjnwxttfNBIYHq-34">
          <mxGeometry relative="1" as="geometry" />
        </mxCell>
        <mxCell id="R7-nLTBjnwxttfNBIYHq-53" value="&lt;b style=&quot;&quot;&gt;&lt;font style=&quot;font-size: 30px;&quot;&gt;AB Boundary&lt;br&gt;Layer&lt;/font&gt;&lt;/b&gt;" style="ellipse;whiteSpace=wrap;html=1;fillColor=#4D94C7;strokeColor=#000000;labelBackgroundColor=none;fontColor=#FFFFFF;" vertex="1" parent="1">
          <mxGeometry x="-1530" y="660" width="270" height="250" as="geometry" />
        </mxCell>
        <mxCell id="R7-nLTBjnwxttfNBIYHq-63" style="edgeStyle=orthogonalEdgeStyle;rounded=0;orthogonalLoop=1;jettySize=auto;html=1;entryX=0;entryY=0.5;entryDx=0;entryDy=0;strokeColor=#23445D;" edge="1" parent="1" source="R7-nLTBjnwxttfNBIYHq-58" target="R7-nLTBjnwxttfNBIYHq-18">
          <mxGeometry relative="1" as="geometry" />
        </mxCell>
        <mxCell id="R7-nLTBjnwxttfNBIYHq-64" style="edgeStyle=orthogonalEdgeStyle;rounded=0;orthogonalLoop=1;jettySize=auto;html=1;exitX=1;exitY=0.5;exitDx=0;exitDy=0;entryX=0;entryY=0.5;entryDx=0;entryDy=0;strokeColor=#23445D;" edge="1" parent="1" source="R7-nLTBjnwxttfNBIYHq-58" target="R7-nLTBjnwxttfNBIYHq-19">
          <mxGeometry relative="1" as="geometry" />
        </mxCell>
        <mxCell id="R7-nLTBjnwxttfNBIYHq-65" style="edgeStyle=orthogonalEdgeStyle;rounded=0;orthogonalLoop=1;jettySize=auto;html=1;exitX=1;exitY=0.5;exitDx=0;exitDy=0;entryX=0;entryY=0.5;entryDx=0;entryDy=0;strokeColor=#23445D;" edge="1" parent="1" source="R7-nLTBjnwxttfNBIYHq-58" target="R7-nLTBjnwxttfNBIYHq-20">
          <mxGeometry relative="1" as="geometry" />
        </mxCell>
        <mxCell id="R7-nLTBjnwxttfNBIYHq-114" style="edgeStyle=orthogonalEdgeStyle;rounded=0;orthogonalLoop=1;jettySize=auto;html=1;exitX=0.5;exitY=1;exitDx=0;exitDy=0;strokeColor=#23445D;align=center;verticalAlign=middle;fontFamily=Helvetica;fontSize=11;fontColor=default;labelBackgroundColor=default;endArrow=classic;" edge="1" parent="1" source="R7-nLTBjnwxttfNBIYHq-58" target="R7-nLTBjnwxttfNBIYHq-103">
          <mxGeometry relative="1" as="geometry" />
        </mxCell>
        <mxCell id="R7-nLTBjnwxttfNBIYHq-58" value="&lt;b style=&quot;font-size: 28px;&quot;&gt;Species of Concern&lt;br&gt;AB Ranges&lt;/b&gt;" style="ellipse;whiteSpace=wrap;html=1;fillColor=#FFD966;strokeColor=#333333;labelBackgroundColor=none;" vertex="1" parent="1">
          <mxGeometry x="-350" y="405" width="230" height="220" as="geometry" />
        </mxCell>
        <mxCell id="R7-nLTBjnwxttfNBIYHq-59" value="&lt;br style=&quot;color: rgb(0, 0, 0);&quot;&gt;&lt;b&gt;&lt;font style=&quot;font-size: 34px;&quot;&gt;FILTER&lt;br&gt;&lt;/font&gt;&lt;/b&gt;&lt;h2 class=&quot;padt-2&quot;&gt;&lt;font style=&quot;font-size: 23px;&quot;&gt;IUCN Level = 1,2,3,4&lt;/font&gt;&lt;/h2&gt;&lt;div&gt;&lt;font style=&quot;font-size: 23px;&quot;&gt;&lt;br&gt;&lt;/font&gt;&lt;/div&gt;" style="rhombus;whiteSpace=wrap;html=1;labelBackgroundColor=none;fillColor=#CC99FF;strokeColor=#000000;fontColor=#FFFFFF;" vertex="1" parent="1">
          <mxGeometry x="-700" y="110" width="300" height="270" as="geometry" />
        </mxCell>
        <mxCell id="R7-nLTBjnwxttfNBIYHq-62" style="edgeStyle=orthogonalEdgeStyle;rounded=0;orthogonalLoop=1;jettySize=auto;html=1;exitX=1;exitY=0.5;exitDx=0;exitDy=0;entryX=0;entryY=0.5;entryDx=0;entryDy=0;strokeColor=#23445D;" edge="1" parent="1" source="R7-nLTBjnwxttfNBIYHq-60" target="R7-nLTBjnwxttfNBIYHq-58">
          <mxGeometry relative="1" as="geometry" />
        </mxCell>
        <mxCell id="R7-nLTBjnwxttfNBIYHq-60" value="&lt;div style=&quot;&quot;&gt;&lt;b&gt;&lt;font style=&quot;font-size: 34px;&quot;&gt;FILTER&lt;br&gt;&lt;/font&gt;&lt;/b&gt;&lt;h2 class=&quot;padt-2&quot;&gt;&lt;font style=&quot;font-size: 22px;&quot;&gt;STATUS={EN, TH, SC}&lt;/font&gt;&lt;/h2&gt;&lt;/div&gt;" style="rhombus;whiteSpace=wrap;html=1;labelBackgroundColor=none;fillColor=#CC99FF;strokeColor=#000000;fontColor=#FFFFFF;" vertex="1" parent="1">
          <mxGeometry x="-700" y="375" width="300" height="280" as="geometry" />
        </mxCell>
        <mxCell id="R7-nLTBjnwxttfNBIYHq-66" style="edgeStyle=orthogonalEdgeStyle;rounded=0;orthogonalLoop=1;jettySize=auto;html=1;exitX=1;exitY=0.5;exitDx=0;exitDy=0;entryX=0;entryY=0.5;entryDx=0;entryDy=0;strokeColor=#23445D;" edge="1" parent="1" source="R7-nLTBjnwxttfNBIYHq-58" target="R7-nLTBjnwxttfNBIYHq-21">
          <mxGeometry relative="1" as="geometry" />
        </mxCell>
        <mxCell id="R7-nLTBjnwxttfNBIYHq-101" style="edgeStyle=orthogonalEdgeStyle;curved=1;rounded=0;orthogonalLoop=1;jettySize=auto;html=1;exitX=1;exitY=0.5;exitDx=0;exitDy=0;entryX=0;entryY=0.5;entryDx=0;entryDy=0;strokeColor=#23445D;align=center;verticalAlign=middle;fontFamily=Helvetica;fontSize=11;fontColor=default;labelBackgroundColor=default;endArrow=classic;" edge="1" parent="1" source="R7-nLTBjnwxttfNBIYHq-81">
          <mxGeometry relative="1" as="geometry">
            <mxPoint x="319.99999999999727" y="413.0597014925372" as="targetPoint" />
          </mxGeometry>
        </mxCell>
        <mxCell id="R7-nLTBjnwxttfNBIYHq-81" value="&lt;b&gt;&lt;font style=&quot;font-size: 29px;&quot;&gt;Intersect&lt;/font&gt;&lt;/b&gt;" style="rounded=1;whiteSpace=wrap;html=1;strokeColor=#0e8088;fillColor=#b0e3e6;" vertex="1" parent="1">
          <mxGeometry x="140" y="375" width="150" height="70" as="geometry" />
        </mxCell>
        <mxCell id="R7-nLTBjnwxttfNBIYHq-90" style="edgeStyle=orthogonalEdgeStyle;rounded=0;orthogonalLoop=1;jettySize=auto;html=1;exitX=1;exitY=0.5;exitDx=0;exitDy=0;entryX=0.5;entryY=0;entryDx=0;entryDy=0;strokeColor=#23445D;align=center;verticalAlign=middle;fontFamily=Helvetica;fontSize=11;fontColor=default;labelBackgroundColor=default;endArrow=classic;" edge="1" parent="1" source="R7-nLTBjnwxttfNBIYHq-51" target="R7-nLTBjnwxttfNBIYHq-81">
          <mxGeometry relative="1" as="geometry">
            <mxPoint x="82.19000000000005" y="245" as="targetPoint" />
          </mxGeometry>
        </mxCell>
        <mxCell id="R7-nLTBjnwxttfNBIYHq-103" value="&lt;span style=&quot;background-color: rgb(251, 251, 251); font-size: 57px;&quot;&gt;&lt;font style=&quot;font-size: 57px;&quot;&gt;&lt;b style=&quot;font-size: 57px;&quot;&gt;SPI&lt;/b&gt;&lt;/font&gt;&lt;/span&gt;" style="html=1;outlineConnect=0;whiteSpace=wrap;fillColor=#FFFFFF;shape=mxgraph.archimate3.function;strokeColor=#000000;fontFamily=Helvetica;fontSize=57;fontColor=default;labelBackgroundColor=default;" vertex="1" parent="1">
          <mxGeometry x="327.5" y="620" width="195" height="180" as="geometry" />
        </mxCell>
        <mxCell id="R7-nLTBjnwxttfNBIYHq-109" style="edgeStyle=orthogonalEdgeStyle;curved=1;rounded=0;orthogonalLoop=1;jettySize=auto;html=1;exitX=0.5;exitY=1;exitDx=0;exitDy=0;strokeColor=#23445D;align=center;verticalAlign=middle;fontFamily=Helvetica;fontSize=11;fontColor=default;labelBackgroundColor=default;endArrow=classic;" edge="1" parent="1" source="R7-nLTBjnwxttfNBIYHq-108" target="R7-nLTBjnwxttfNBIYHq-103">
          <mxGeometry relative="1" as="geometry" />
        </mxCell>
        <mxCell id="R7-nLTBjnwxttfNBIYHq-108" value="&lt;span style=&quot;font-size: 28px;&quot;&gt;&lt;b&gt;Species 1 Area Protected&lt;/b&gt;&lt;/span&gt;" style="ellipse;whiteSpace=wrap;html=1;fillColor=#FFD966;strokeColor=#333333;labelBackgroundColor=none;" vertex="1" parent="1">
          <mxGeometry x="320" y="300" width="210" height="200" as="geometry" />
        </mxCell>
      </root>
    </mxGraphModel>
  </diagram>
</mxfile>
